<svg width="386" height="208" viewBox="0 0 386 208" fill="none" xmlns="http://www.w3.org/2000/svg">
<path d="M191.914 197.653C191.914 197.653 152.435 198.362 96.7184 189.944C-19.5109 172.383 -19.8219 12.1534 96.7184 12.1534C187.787 12.1534 191.735 99.5972 191.906 107.178C191.858 99.5972 193.486 12.1534 293.935 12.1534C391.935 12.1534 411.935 173.153 288.935 189.944C233.417 197.523 191.914 197.653 191.914 197.653Z" fill="white"/>
<path d="M191.914 197.653C191.914 197.653 152.435 198.362 96.7184 189.944C-19.5109 172.383 -19.8219 12.1534 96.7184 12.1534C191.914 12.1534 191.914 107.701 191.914 107.701C191.914 107.701 188.935 12.1534 293.935 12.1534C391.935 12.1534 411.935 173.153 288.935 189.944C233.417 197.523 191.914 197.653 191.914 197.653Z" stroke="black" stroke-width="15"/>
<path d="M191.914 197.653C191.914 197.653 152.435 198.362 96.7184 189.944C-19.5109 172.383 -19.8219 12.1534 96.7184 12.1534C187.787 12.1534 191.735 99.5972 191.906 107.178C191.858 99.5972 193.486 12.1534 293.935 12.1534C391.935 12.1534 411.935 173.153 288.935 189.944C233.417 197.523 191.914 197.653 191.914 197.653Z" fill="white"/>
<path d="M191.914 197.653C191.914 197.653 152.435 198.362 96.7184 189.944C-19.5109 172.383 -19.8219 12.1534 96.7184 12.1534C191.914 12.1534 191.914 107.701 191.914 107.701C191.914 107.701 188.935 12.1534 293.935 12.1534C391.935 12.1534 411.935 173.153 288.935 189.944C233.417 197.523 191.914 197.653 191.914 197.653Z" stroke="black" stroke-width="15"/>
<path d="M191.914 201.633C191.914 201.633 152.435 202.357 96.7184 193.758C-25.1747 174.944 -24.3339 8.15344 96.7184 8.15344C191.914 8.15344 191.914 96.2972 191.914 96.2972C191.914 96.2972 188.935 8.15344 293.935 8.15344C398.935 8.15344 418.015 175.757 288.935 193.758C233.417 201.5 191.914 201.633 191.914 201.633Z" stroke="white" stroke-width="5"/>
<path d="M187.062 134.561C187.062 134.561 243.796 174.787 236.322 106.008C249.75 103.296 249.233 112.289 285.17 101.792C348.754 119.747 354.476 78.5442 285.233 98.2033C255.779 106.566 239.914 105.519 239.914 105.519" stroke="black" stroke-width="15"/>
<path d="M195.665 134.561C195.665 134.561 142.236 175.717 146.616 105.859C131.553 101.643 133.705 112.14 97.7677 101.643C34.1838 119.598 28.462 78.3948 97.7051 98.0539C124.387 101.643 142.236 104.959 142.236 104.959" stroke="black" stroke-width="15"/>
</svg>
