<svg width="385" height="208" viewBox="0 0 385 208" fill="none" xmlns="http://www.w3.org/2000/svg">
<path d="M192.804 197.649C192.804 197.649 153.344 199.046 97.4888 191.602C-19.0293 176.072 -22.1366 15.8723 94.386 13.8384C185.441 12.249 190.914 99.6106 191.217 107.187C191.037 99.6084 191.139 12.1496 291.572 10.3965C389.557 8.68618 412.364 169.313 289.676 188.247C234.299 196.794 192.804 197.649 192.804 197.649Z" fill="white"/>
<path d="M192.804 197.649C192.804 197.649 153.344 199.046 97.4888 191.602C-19.0293 176.072 -22.1366 15.8723 94.386 13.8384C189.567 12.177 191.234 107.71 191.234 107.71C191.234 107.71 186.588 12.229 291.572 10.3965C389.557 8.68618 412.364 169.313 289.676 188.247C234.299 196.794 192.804 197.649 192.804 197.649Z" stroke="black" stroke-width="15"/>
<path d="M192.874 201.628C192.874 201.628 153.413 203.041 97.5554 195.415C-24.6475 178.732 -26.7177 11.9516 94.3161 9.83896C189.497 8.17757 191.035 96.3079 191.035 96.3079C191.035 96.3079 186.518 8.22956 291.502 6.39706C396.486 4.56455 418.489 171.81 289.742 192.06C234.368 200.77 192.874 201.628 192.874 201.628Z" stroke="white" stroke-width="5"/>
<ellipse cx="276.848" cy="99.5638" rx="13.2355" ry="25.0004" transform="rotate(-176 276.848 99.5638)" fill="black"/>
<path d="M179.29 132.702C179.29 132.702 234.052 184.497 239.404 101.117M239.404 101.117C239.404 101.117 238.602 55.1912 287.457 59.7612C346.009 65.2383 347.012 121.555 288.628 126.824C265.731 128.891 239.806 124.166 239.404 101.117Z" stroke="black" stroke-width="15"/>
<path d="M188.319 133.523C188.319 133.523 136.814 167.306 142.901 102.801C127.837 98.5854 129.989 109.082 94.0521 98.5855C30.4682 116.54 24.7464 75.3375 93.9895 94.9965C120.672 98.5855 138.52 101.901 138.52 101.901" stroke="black" stroke-width="15"/>
</svg>
