<svg width="385" height="208" viewBox="0 0 385 208" fill="none" xmlns="http://www.w3.org/2000/svg">
<path d="M189.567 197.63C189.567 197.63 150.081 197.65 94.5204 188.26C-21.3848 168.674 -18.8993 8.46288 97.6233 10.4968C188.678 12.0862 191.099 99.5855 191.138 107.168C191.223 99.5876 194.376 12.1856 294.81 13.9387C392.795 15.649 409.982 176.974 286.707 191.615C231.066 198.224 189.567 197.63 189.567 197.63Z" fill="white"/>
<path d="M189.567 197.63C189.567 197.63 150.081 197.65 94.5204 188.26C-21.3848 168.674 -18.8993 8.46288 97.6233 10.4968C192.804 12.1582 191.136 107.691 191.136 107.691C191.136 107.691 189.825 12.1062 294.81 13.9387C392.795 15.649 409.982 176.974 286.707 191.615C231.066 198.224 189.567 197.63 189.567 197.63Z" stroke="black" stroke-width="15"/>
<path d="M189.497 201.609C189.497 201.609 150.012 201.644 94.4538 192.073C-27.0924 171.135 -23.3408 4.38457 97.6931 6.49722C192.874 8.15861 191.335 96.2889 191.335 96.2889C191.335 96.2889 189.895 8.10662 294.879 9.93912C399.863 11.7716 416.016 179.683 286.641 195.428C230.996 202.2 189.497 201.609 189.497 201.609Z" stroke="white" stroke-width="5"/>
<ellipse cx="13.2355" cy="25.0004" rx="13.2355" ry="25.0004" transform="matrix(0.997564 -0.0697565 -0.0697565 -0.997564 95.4832 122.109)" fill="black"/>
<path d="M193.66 132.405C193.66 132.405 250.808 169.717 240.279 102.797C253.707 100.084 253.19 109.078 289.127 98.5809C352.711 116.536 358.433 75.3327 289.19 94.9919C259.736 103.354 243.871 102.307 243.871 102.307" stroke="black" stroke-width="15"/>
<path d="M202.587 131.935C202.587 131.935 146.385 189.968 143.776 101.112M143.776 101.112C143.776 101.112 144.831 57.8741 95.7702 57.0176C38.9053 56.025 37.6779 126.336 94.5429 127.329C117.44 129.395 143.373 124.162 143.776 101.112Z" stroke="black" stroke-width="15"/>
</svg>
