<svg width="386" height="209" viewBox="0 0 386 209" fill="none" xmlns="http://www.w3.org/2000/svg">
<path d="M192.168 198.447C192.168 198.447 152.689 199.155 96.9726 190.737C-19.2567 173.177 -19.5677 12.9468 96.9726 12.9468C188.041 12.9468 191.989 100.391 192.16 107.971C192.112 100.39 193.74 12.9468 294.189 12.9468C392.189 12.9468 412.189 173.947 289.189 190.737C233.671 198.316 192.168 198.447 192.168 198.447Z" fill="white"/>
<path d="M192.168 198.447C192.168 198.447 152.689 199.155 96.9726 190.737C-19.2567 173.177 -19.5677 12.9468 96.9726 12.9468C192.168 12.9468 192.168 108.494 192.168 108.494C192.168 108.494 189.189 12.9468 294.189 12.9468C392.189 12.9468 412.189 173.947 289.189 190.737C233.671 198.316 192.168 198.447 192.168 198.447Z" stroke="black" stroke-width="15"/>
<path d="M192.168 202.427C192.168 202.427 152.689 203.151 96.9726 194.551C-24.9205 175.737 -24.0797 8.94678 96.9726 8.94678C192.168 8.94678 192.168 97.0905 192.168 97.0905C192.168 97.0905 189.189 8.94678 294.189 8.94678C399.189 8.94678 418.269 176.55 289.189 194.551C233.671 202.293 192.168 202.427 192.168 202.427Z" stroke="white" stroke-width="5"/>
<path d="M173.75 150.185L191.917 142.776L210.085 150.185V157.561C210.085 165.846 203.37 172.561 195.085 172.561H188.75C180.465 172.561 173.75 165.846 173.75 157.561V150.185Z" fill="white" stroke="black" stroke-width="10"/>
<circle cx="73.2545" cy="128.382" r="32.385" fill="#FF64CA" fill-opacity="0.6"/>
<circle cx="312.463" cy="128.382" r="32.385" fill="#FF64CA" fill-opacity="0.6"/>
<path d="M289.212 143.685C349.431 143.685 348.915 55.9663 289.212 55.9663C240.445 55.9663 240.445 102.346 240.445 102.346C240.445 106.988 241.031 111.109 242.074 114.767C250.55 144.485 289.212 143.685 289.212 143.685Z" fill="white"/>
<path d="M188.416 134.163C188.416 134.163 254.618 185.101 240.445 102.346M289.212 143.685C349.431 143.685 348.915 55.9663 289.212 55.9663C240.445 55.9663 240.445 102.346 240.445 102.346M289.212 143.685C289.212 143.685 240.445 144.694 240.445 102.346M289.212 143.685C270.771 143.685 240.445 133.603 240.445 102.346" stroke="black" stroke-width="15"/>
<path d="M95.1597 144.685C34.9407 144.685 35.4572 56.9663 95.1597 56.9663C143.927 56.9663 143.927 103.346 143.927 103.346C143.927 108.617 143.172 113.215 141.849 117.228C132.544 145.458 95.1597 144.685 95.1597 144.685Z" fill="white"/>
<path d="M196.948 134.443C196.948 134.443 128.127 180.701 143.927 103.346M95.1597 144.685C34.9407 144.685 35.4572 56.9663 95.1597 56.9663C143.927 56.9663 143.927 103.346 143.927 103.346M95.1597 144.685C95.1597 144.685 143.927 145.694 143.927 103.346M95.1597 144.685C113.602 144.685 143.927 134.603 143.927 103.346" stroke="black" stroke-width="15"/>
<ellipse cx="277.639" cy="101.447" rx="23.2886" ry="25.0004" transform="rotate(-175 277.639 101.447)" fill="black"/>
<ellipse cx="269.853" cy="93.7352" rx="8.78127" ry="9.32303" transform="rotate(-9.69148 269.853 93.7352)" fill="white"/>
<ellipse cx="105.64" cy="101.447" rx="23.1739" ry="24.6036" transform="rotate(-5 105.64 101.447)" fill="black"/>
<ellipse cx="99.7926" cy="92.8985" rx="8.78127" ry="9.32303" transform="rotate(-9.69148 99.7926 92.8985)" fill="white"/>
<path d="M331.805 82.5744L332.978 82.5076L333.491 81.4503L345.381 56.9321L346.038 84.1426L346.066 85.3236L347.114 85.8687L369.884 97.7129L343.977 100.114L342.672 100.235L342.262 101.48L323.61 158.119L329.806 98.7969L329.941 97.4974L328.806 96.851L306.278 84.0279L331.805 82.5744Z" fill="#FFF621" stroke="#FFE500" stroke-width="4"/>
<path d="M38.1849 42.5527L39.2843 42.1371L39.4562 40.9744L43.0547 16.6338L52.222 39.4308L52.6629 40.5274L53.8362 40.67L78.2963 43.6435L55.2796 53.2058L54.0454 53.7185L54.0469 55.055L54.109 108.512L41.3897 56.5742L41.0728 55.2802L39.7565 55.0741L15.2253 51.2321L38.1849 42.5527Z" fill="#FFF621" stroke="#FFE500" stroke-width="4"/>
</svg>
