<svg width="385" height="208" viewBox="0 0 385 208" fill="none" xmlns="http://www.w3.org/2000/svg">
<path d="M191.185 197.653C191.185 197.653 151.706 198.362 95.9901 189.944C-20.2393 172.383 -20.5502 12.1534 95.9901 12.1534C187.059 12.1534 191.006 99.5972 191.178 107.178C191.13 99.5972 192.758 12.1534 293.206 12.1534C391.206 12.1534 411.206 173.153 288.206 189.944C232.688 197.523 191.185 197.653 191.185 197.653Z" fill="white"/>
<path d="M191.185 197.653C191.185 197.653 151.706 198.362 95.9901 189.944C-20.2393 172.383 -20.5502 12.1534 95.9901 12.1534C191.185 12.1534 191.185 107.701 191.185 107.701C191.185 107.701 188.206 12.1534 293.206 12.1534C391.206 12.1534 411.206 173.153 288.206 189.944C232.688 197.523 191.185 197.653 191.185 197.653Z" stroke="black" stroke-width="15"/>
<path d="M191.185 201.633C191.185 201.633 151.706 202.357 95.99 193.758C-25.9031 174.944 -25.0622 8.15344 95.99 8.15344C191.185 8.15344 191.185 96.2972 191.185 96.2972C191.185 96.2972 188.206 8.15344 293.206 8.15344C398.206 8.15344 417.287 175.757 288.206 193.758C232.688 201.5 191.185 201.633 191.185 201.633Z" stroke="white" stroke-width="5"/>
<ellipse cx="276.657" cy="100.653" rx="13.2355" ry="25.0004" transform="rotate(-175 276.657 100.653)" fill="black"/>
<ellipse cx="104.657" cy="100.654" rx="13.0254" ry="24.6036" transform="rotate(-5 104.657 100.654)" fill="black"/>
<path d="M174.802 144.259L190.917 136.85L207.033 144.259V151.635C207.033 159.92 200.317 166.635 192.033 166.635H189.802C181.518 166.635 174.802 159.92 174.802 151.635V144.259Z" fill="white" stroke="black" stroke-width="8"/>
<path d="M186.367 132.65C186.367 132.65 239.462 179.169 239.462 101.553M288.23 142.892C348.449 142.892 347.932 55.1727 288.23 55.1727C239.462 55.1727 239.462 101.553 239.462 101.553M288.23 142.892C288.23 142.892 239.462 143.9 239.462 101.553M288.23 142.892C269.788 142.892 239.462 132.809 239.462 101.553" stroke="black" stroke-width="15"/>
<path d="M195.965 133.65C195.965 133.65 142.945 178.515 142.945 102.553M94.1772 143.892C33.9582 143.892 34.4747 56.1727 94.1772 56.1727C142.945 56.1727 142.945 102.553 142.945 102.553M94.1772 143.892C94.1772 143.892 142.945 144.9 142.945 102.553M94.1772 143.892C112.619 143.892 142.945 133.809 142.945 102.553" stroke="black" stroke-width="15"/>
</svg>
